<svg xmlns="http://www.w3.org/2000/svg" enable-background="new 0 0 24 24" viewBox="0 0 24 24" id="ko-fi">
    <path fill="#ffffff"
        d="M2.608,19.5c0,0,8.267-0.023,11.966-0.048c2.438-0.418,2.683-2.517,2.658-3.663c4.352,0.235,7.422-2.777,6.649-6.784C23.108,4.998,19.022,4.5,19.022,4.5H0.723c-0.604,0-0.679,0.783-0.679,0.783s-0.082,7.184-0.022,11.596C0.186,19.257,2.608,19.5,2.608,19.5z M17.31,7.373h1.77c0,0,1.971,0.541,1.971,2.588c0,1.877-0.985,2.616-2.059,2.958c-0.928,0.114-1.682,0.027-1.682,0.027V7.373z M4.265,8.766C5.216,7.775,7.27,7.701,8.628,9.165c0,0,1.565-1.748,3.468-0.945c1.904,0.804,1.832,2.953,0.723,4.229c-1.246,1.425-4.011,3.9-4.011,3.9s-0.121,0.117-0.31,0.023c-0.076-0.056-0.108-0.088-0.108-0.088c-0.443-0.432-3.368-2.991-4.034-3.878C3.647,11.459,3.315,9.757,4.265,8.766z">
    </path>
</svg>