<svg xmlns="http://www.w3.org/2000/svg" xmlns:xlink="http://www.w3.org/1999/xlink" viewBox="0 0 1080 1080" width="1080"
    height="1080" preserveAspectRatio="xMidYMid meet"
    style="width: 100%; height: 100%; transform: translate3d(0px, 0px, 0px); content-visibility: visible;">
    <defs>
        <clipPath id="__lottie_element_2">
            <rect width="1080" height="1080" x="0" y="0"></rect>
        </clipPath>
    </defs>
    <g clip-path="url(#__lottie_element_2)">
        <g transform="matrix(0.75,0,0,0.75,540,540)" opacity="1" style="display: block;">
            <g opacity="1" transform="matrix(1,0,0,1,0,0)">
                <path fill="#ffffff" fill-opacity="1"
                    d=" M467.3586730957031,-220.6243896484375 C484.9088439941406,-366.23370361328125 351.6535339355469,-474.61767578125 222.87802124023438,-505.4285583496094 C58.516357421875,-545.02783203125 -38.68306350708008,-557.0528564453125 -175.94508361816406,-496.6814880371094 C-410.6828918457031,-393.90899658203125 -470.9244384765625,-172.82960510253906 -473.0434265136719,13.869393348693848 C-474.7834167480469,167.36839294433594 -395.0931701660156,559.8829956054688 -172.67465209960938,556.3096313476562 C-22.254491806030273,548.1885375976562 -67.70726013183594,409.5627746582031 59.094703674316406,237.15286254882812 C114.42330169677734,162.00677490234375 155.1124725341797,154.69573974609375 237.02023315429688,115.80653381347656 C397.53680419921875,30.254491806030273 449.8955078125,-73.89514923095703 467.3586730957031,-220.6243896484375z">
                </path>
            </g>
        </g>
    </g>
</svg>